<svg width="19" height="19" viewBox="0 0 19 19" fill="none" xmlns="http://www.w3.org/2000/svg">
<path d="M15.7289 6.52603L9.5716 10.3743L3.41432 6.52603V4.98671L9.5716 8.83501L15.7289 4.98671M15.7289 3.44739H3.41432C2.56 3.44739 1.875 4.13239 1.875 4.98671V14.2226C1.875 14.6309 2.03718 15.0224 2.32586 15.3111C2.61453 15.5998 3.00607 15.7619 3.41432 15.7619H15.7289C16.1371 15.7619 16.5287 15.5998 16.8173 15.3111C17.106 15.0224 17.2682 14.6309 17.2682 14.2226V4.98671C17.2682 4.57845 17.106 4.18692 16.8173 3.89824C16.5287 3.60957 16.1371 3.44739 15.7289 3.44739Z" fill="#EDEDED"/>
</svg>
