<svg width="30" height="26" viewBox="0 0 30 26" fill="none" xmlns="http://www.w3.org/2000/svg">
<path d="M7.87498 0.0782011C6.00021 0.0782011 4.12544 0.835237 2.69748 2.33445C-0.158453 5.33288 -0.155489 10.1511 2.69748 13.1527L14.715 25.7994C14.7862 25.8766 14.8872 25.9212 14.994 25.9212C15.0994 25.9212 15.2004 25.8766 15.2731 25.7994C19.284 21.5883 23.2919 17.3756 27.3024 13.1645C30.1583 10.166 30.1583 5.34481 27.3024 2.34623C24.4465 -0.652349 19.8035 -0.652197 16.9474 2.34623L14.9999 4.37687L13.0524 2.33437C11.6244 0.835161 9.74965 0.078125 7.87488 0.078125L7.87498 0.0782011ZM7.87498 0.826345C9.54489 0.826345 11.2193 1.50472 12.5064 2.85699L14.7271 5.19634C14.7983 5.27353 14.8992 5.31806 15.0061 5.31806C15.1115 5.31806 15.2125 5.27353 15.2852 5.19634L17.4939 2.86884C20.0693 0.164309 24.169 0.164309 26.7447 2.86884C29.32 5.57338 29.32 9.9376 26.7447 12.6421C22.8288 16.7537 18.9159 20.8683 15.0004 24.9803L3.2561 12.6303C0.683688 9.92279 0.680724 5.56038 3.2561 2.85706C4.54304 1.5048 6.20554 0.826421 7.87538 0.826421L7.87498 0.826345Z" fill="black"/>
</svg>
