<svg width="32" height="32" viewBox="0 0 32 32" fill="none" xmlns="http://www.w3.org/2000/svg">
<path d="M28.2563 15.4569C27.9551 15.4569 27.7126 15.7006 27.7126 16.0006V27.7133H4.28762V4.28829H16.0003C16.3015 4.28829 16.544 4.04454 16.544 3.74455C16.544 3.4433 16.3003 3.20081 16.0003 3.20081H3.74394C3.44269 3.20081 3.2002 3.44456 3.2002 3.74455V28.2572C3.2002 28.5584 3.44395 28.8009 3.74394 28.8009H28.2566C28.5578 28.8009 28.8003 28.5572 28.8003 28.2572V16.0009C28.8003 15.6996 28.5566 15.4571 28.2566 15.4571L28.2563 15.4569Z" fill="black"/>
<path d="M28.4637 3.24132C28.3962 3.21632 28.3262 3.20007 28.2562 3.20007H20.9026C20.6013 3.20007 20.3589 3.44382 20.3589 3.74382C20.3589 4.04507 20.6026 4.28756 20.9026 4.28756H26.9413L15.6162 15.6162C15.405 15.8275 15.405 16.1725 15.6162 16.3875C15.7212 16.4925 15.8625 16.5475 15.9999 16.5475C16.1374 16.5475 16.2787 16.4925 16.3837 16.3875L27.7123 5.05883V11.0975C27.7123 11.3988 27.9561 11.6413 28.2561 11.6413C28.5573 11.6413 28.7998 11.3975 28.7998 11.0975V3.74395C28.7998 3.67395 28.7836 3.60269 28.7586 3.53644C28.7036 3.40519 28.5948 3.29644 28.4636 3.24144L28.4637 3.24132Z" fill="black"/>
</svg>
