<svg width="25" height="25" viewBox="0 0 25 25" fill="none" xmlns="http://www.w3.org/2000/svg">
<path d="M13.528 2.68458C14.2578 2.68178 14.9875 2.68911 15.717 2.70658L15.911 2.71358C16.135 2.72158 16.356 2.73158 16.623 2.74358C17.687 2.79358 18.413 2.96158 19.05 3.20858C19.71 3.46258 20.266 3.80658 20.822 4.36258C21.3304 4.86219 21.7239 5.46653 21.975 6.13358C22.222 6.77058 22.39 7.49758 22.44 8.56158C22.452 8.82758 22.462 9.04958 22.47 9.27358L22.476 9.46758C22.4938 10.1968 22.5015 10.9262 22.499 11.6556L22.5 12.4016V13.7116C22.5025 14.4413 22.4948 15.1711 22.477 15.9006L22.471 16.0946C22.463 16.3186 22.453 16.5396 22.441 16.8066C22.391 17.8706 22.221 18.5966 21.975 19.2336C21.7247 19.9013 21.3311 20.5062 20.822 21.0056C20.322 21.5139 19.7173 21.9073 19.05 22.1586C18.413 22.4056 17.687 22.5736 16.623 22.6236C16.356 22.6356 16.135 22.6456 15.911 22.6536L15.717 22.6596C14.9875 22.6774 14.2578 22.685 13.528 22.6826L12.782 22.6836H11.473C10.7433 22.686 10.0136 22.6784 9.28403 22.6606L9.09003 22.6546C8.85264 22.646 8.6153 22.636 8.37803 22.6246C7.31403 22.5746 6.58803 22.4046 5.95003 22.1586C5.28271 21.9079 4.67827 21.5144 4.17903 21.0056C3.67007 20.5059 3.27625 19.9011 3.02503 19.2336C2.77803 18.5966 2.61003 17.8706 2.56003 16.8066C2.54889 16.5693 2.53889 16.332 2.53003 16.0946L2.52503 15.9006C2.50659 15.1711 2.49826 14.4413 2.50003 13.7116V11.6556C2.49724 10.9262 2.50457 10.1968 2.52203 9.46758L2.52903 9.27358C2.53703 9.04958 2.54703 8.82758 2.55903 8.56158C2.60903 7.49658 2.77703 6.77158 3.02403 6.13358C3.2754 5.4662 3.66999 4.86203 4.18003 4.36358C4.67892 3.85433 5.28299 3.46015 5.95003 3.20858C6.58803 2.96158 7.31303 2.79358 8.37803 2.74358L9.09003 2.71358L9.28403 2.70858C10.0132 2.69015 10.7426 2.68182 11.472 2.68358L13.528 2.68458ZM12.5 7.68458C11.8375 7.67521 11.1798 7.7976 10.565 8.04465C9.95022 8.29169 9.39067 8.65846 8.91887 9.12363C8.44707 9.58881 8.07243 10.1431 7.81671 10.7543C7.561 11.3656 7.42932 12.0215 7.42932 12.6841C7.42932 13.3466 7.561 14.0026 7.81671 14.6138C8.07243 15.225 8.44707 15.7794 8.91887 16.2445C9.39067 16.7097 9.95022 17.0765 10.565 17.3235C11.1798 17.5706 11.8375 17.693 12.5 17.6836C13.8261 17.6836 15.0979 17.1568 16.0356 16.2191C16.9732 15.2814 17.5 14.0097 17.5 12.6836C17.5 11.3575 16.9732 10.0857 16.0356 9.14805C15.0979 8.21036 13.8261 7.68458 12.5 7.68458ZM12.5 9.68458C12.8985 9.67724 13.2945 9.74938 13.6648 9.89679C14.0351 10.0442 14.3724 10.2639 14.6568 10.5431C14.9412 10.8223 15.1672 11.1554 15.3215 11.5229C15.4757 11.8904 15.5552 12.285 15.5553 12.6836C15.5554 13.0821 15.476 13.4767 15.3219 13.8443C15.1677 14.2119 14.9419 14.545 14.6575 14.8243C14.3732 15.1036 14.036 15.3235 13.6658 15.471C13.2955 15.6185 12.8995 15.6908 12.501 15.6836C11.7054 15.6836 10.9423 15.3675 10.3797 14.8049C9.8171 14.2423 9.50103 13.4792 9.50103 12.6836C9.50103 11.8879 9.8171 11.1249 10.3797 10.5623C10.9423 9.99965 11.7054 9.68358 12.501 9.68358L12.5 9.68458ZM17.75 6.18458C17.4274 6.19749 17.1223 6.33473 16.8986 6.56755C16.6749 6.80037 16.55 7.11071 16.55 7.43358C16.55 7.75645 16.6749 8.06679 16.8986 8.29961C17.1223 8.53243 17.4274 8.66967 17.75 8.68258C18.0815 8.68258 18.3995 8.55088 18.6339 8.31646C18.8683 8.08204 19 7.7641 19 7.43258C19 7.10106 18.8683 6.78312 18.6339 6.5487C18.3995 6.31428 18.0815 6.18258 17.75 6.18258V6.18458Z" fill="#EDEDED"/>
</svg>
