<svg width="166" height="63" viewBox="0 0 166 63" fill="none" xmlns="http://www.w3.org/2000/svg">
<path d="M0 0H22.4579C32.3686 0 40.4028 8.03418 40.4028 17.9448V40.4028H17.9448C8.03417 40.4028 0 32.3686 0 22.4579V0Z" fill="#131313"/>
<path d="M62.2206 0L62.2206 24.3839C62.2206 34.2945 54.1864 42.3287 44.2757 42.3287L19.8919 42.3287L19.8919 17.9448C19.8919 8.03417 27.9261 -1.49906e-06 37.8367 -1.06585e-06L62.2206 0Z" fill="#EE0000"/>
<path d="M40.4028 21.8177L40.4028 44.2757C40.4028 54.1864 32.3686 62.2205 22.458 62.2205L5.16397e-05 62.2205L5.26214e-05 39.7626C5.30546e-05 29.8519 8.03424 21.8177 17.9449 21.8177L40.4028 21.8177Z" fill="#EE0000"/>
<path d="M18.585 19.0905H44.2757C54.1864 19.0905 62.2206 27.1246 62.2206 37.0353V62.7261H36.5298C26.6191 62.7261 18.585 54.6919 18.585 44.7812V19.0905Z" fill="#131313"/>
<path d="M86.8539 9.96858V22.3966C86.8539 24.3206 86.3079 25.8026 85.2159 26.8426C84.1412 27.8826 82.6852 28.4026 80.8479 28.4026C78.9239 28.4026 77.3812 27.8566 76.2199 26.7646C75.0585 25.6726 74.4779 24.1212 74.4779 22.1106H78.8979C78.8979 22.8732 79.0539 23.4539 79.3659 23.8526C79.6779 24.2339 80.1285 24.4246 80.7179 24.4246C81.2552 24.4246 81.6712 24.2512 81.9659 23.9046C82.2605 23.5579 82.4079 23.0552 82.4079 22.3966V9.96858H86.8539ZM99.0771 28.4026C97.3611 28.4026 95.7838 28.0039 94.3451 27.2066C92.9238 26.4092 91.7885 25.2999 90.9391 23.8786C90.1071 22.4399 89.6911 20.8279 89.6911 19.0426C89.6911 17.2572 90.1071 15.6539 90.9391 14.2326C91.7885 12.8112 92.9238 11.7019 94.3451 10.9046C95.7838 10.1072 97.3611 9.70858 99.0771 9.70858C100.793 9.70858 102.362 10.1072 103.783 10.9046C105.222 11.7019 106.348 12.8112 107.163 14.2326C107.995 15.6539 108.411 17.2572 108.411 19.0426C108.411 20.8279 107.995 22.4399 107.163 23.8786C106.331 25.2999 105.204 26.4092 103.783 27.2066C102.362 28.0039 100.793 28.4026 99.0771 28.4026ZM99.0771 24.3466C100.533 24.3466 101.694 23.8612 102.561 22.8906C103.445 21.9199 103.887 20.6372 103.887 19.0426C103.887 17.4306 103.445 16.1479 102.561 15.1946C101.694 14.2239 100.533 13.7386 99.0771 13.7386C97.6038 13.7386 96.4251 14.2152 95.5411 15.1686C94.6745 16.1219 94.2411 17.4132 94.2411 19.0426C94.2411 20.6546 94.6745 21.9459 95.5411 22.9166C96.4251 23.8699 97.6038 24.3466 99.0771 24.3466ZM123.001 15.7406C122.671 15.1339 122.195 14.6746 121.571 14.3626C120.964 14.0332 120.245 13.8686 119.413 13.8686C117.974 13.8686 116.821 14.3452 115.955 15.2986C115.088 16.2346 114.655 17.4912 114.655 19.0686C114.655 20.7499 115.105 22.0672 116.007 23.0206C116.925 23.9566 118.182 24.4246 119.777 24.4246C120.869 24.4246 121.787 24.1472 122.533 23.5926C123.295 23.0379 123.85 22.2406 124.197 21.2006H118.555V17.9246H128.227V22.0586C127.897 23.1679 127.334 24.1992 126.537 25.1526C125.757 26.1059 124.76 26.8772 123.547 27.4666C122.333 28.0559 120.964 28.3506 119.439 28.3506C117.636 28.3506 116.024 27.9606 114.603 27.1806C113.199 26.3832 112.098 25.2826 111.301 23.8786C110.521 22.4746 110.131 20.8712 110.131 19.0686C110.131 17.2659 110.521 15.6626 111.301 14.2586C112.098 12.8372 113.199 11.7366 114.603 10.9566C116.007 10.1592 117.61 9.76058 119.413 9.76058C121.597 9.76058 123.434 10.2892 124.925 11.3466C126.433 12.4039 127.429 13.8686 127.915 15.7406H123.001ZM142.129 9.96858V22.3966C142.129 24.3206 141.583 25.8026 140.491 26.8426C139.417 27.8826 137.961 28.4026 136.123 28.4026C134.199 28.4026 132.657 27.8566 131.495 26.7646C130.334 25.6726 129.753 24.1212 129.753 22.1106H134.173C134.173 22.8732 134.329 23.4539 134.641 23.8526C134.953 24.2339 135.404 24.4246 135.993 24.4246C136.531 24.4246 136.947 24.2512 137.241 23.9046C137.536 23.5579 137.683 23.0552 137.683 22.3966V9.96858H142.129ZM157.083 24.9966H150.271L149.179 28.2206H144.525L151.129 9.96858H156.277L162.881 28.2206H158.175L157.083 24.9966ZM155.939 21.5646L153.677 14.8826L151.441 21.5646H155.939ZM83.1819 54.2206L78.4619 48.0206V54.2206H75.0419V40.1806H78.4619V46.3406L83.1419 40.1806H87.1619L81.7219 47.0606L87.3619 54.2206H83.1819ZM95.6272 54.3606C94.3072 54.3606 93.0939 54.0539 91.9872 53.4406C90.8939 52.8272 90.0205 51.9739 89.3672 50.8806C88.7272 49.7739 88.4072 48.5339 88.4072 47.1606C88.4072 45.7872 88.7272 44.5539 89.3672 43.4606C90.0205 42.3672 90.8939 41.5139 91.9872 40.9006C93.0939 40.2872 94.3072 39.9806 95.6272 39.9806C96.9472 39.9806 98.1539 40.2872 99.2472 40.9006C100.354 41.5139 101.221 42.3672 101.847 43.4606C102.487 44.5539 102.807 45.7872 102.807 47.1606C102.807 48.5339 102.487 49.7739 101.847 50.8806C101.207 51.9739 100.341 52.8272 99.2472 53.4406C98.1539 54.0539 96.9472 54.3606 95.6272 54.3606ZM95.6272 51.2406C96.7472 51.2406 97.6405 50.8672 98.3072 50.1206C98.9872 49.3739 99.3272 48.3872 99.3272 47.1606C99.3272 45.9206 98.9872 44.9339 98.3072 44.2006C97.6405 43.4539 96.7472 43.0806 95.6272 43.0806C94.4939 43.0806 93.5872 43.4472 92.9072 44.1806C92.2405 44.9139 91.9072 45.9072 91.9072 47.1606C91.9072 48.4006 92.2405 49.3939 92.9072 50.1406C93.5872 50.8739 94.4939 51.2406 95.6272 51.2406ZM108.13 40.1806V54.2206H104.71V40.1806H108.13ZM114.267 47.1806C114.267 45.7939 114.567 44.5606 115.167 43.4806C115.767 42.3872 116.6 41.5406 117.667 40.9406C118.747 40.3272 119.967 40.0206 121.327 40.0206C122.993 40.0206 124.42 40.4606 125.607 41.3406C126.793 42.2206 127.587 43.4206 127.987 44.9406H124.227C123.947 44.3539 123.547 43.9072 123.027 43.6006C122.52 43.2939 121.94 43.1406 121.287 43.1406C120.233 43.1406 119.38 43.5072 118.727 44.2406C118.073 44.9739 117.747 45.9539 117.747 47.1806C117.747 48.4072 118.073 49.3872 118.727 50.1206C119.38 50.8539 120.233 51.2206 121.287 51.2206C121.94 51.2206 122.52 51.0672 123.027 50.7606C123.547 50.4539 123.947 50.0072 124.227 49.4206H127.987C127.587 50.9406 126.793 52.1406 125.607 53.0206C124.42 53.8872 122.993 54.3206 121.327 54.3206C119.967 54.3206 118.747 54.0206 117.667 53.4206C116.6 52.8072 115.767 51.9606 115.167 50.8806C114.567 49.8006 114.267 48.5672 114.267 47.1806ZM133.501 51.5806H137.981V54.2206H130.081V40.1806H133.501V51.5806ZM142.972 40.1806V48.5806C142.972 49.4206 143.179 50.0672 143.592 50.5206C144.006 50.9739 144.612 51.2006 145.412 51.2006C146.212 51.2006 146.826 50.9739 147.252 50.5206C147.679 50.0672 147.892 49.4206 147.892 48.5806V40.1806H151.312V48.5606C151.312 49.8139 151.046 50.8739 150.512 51.7406C149.979 52.6072 149.259 53.2606 148.352 53.7006C147.459 54.1406 146.459 54.3606 145.352 54.3606C144.246 54.3606 143.252 54.1472 142.372 53.7206C141.506 53.2806 140.819 52.6272 140.312 51.7606C139.806 50.8806 139.552 49.8139 139.552 48.5606V40.1806H142.972ZM162.214 47.0206C163.027 47.1939 163.68 47.6006 164.174 48.2406C164.667 48.8672 164.914 49.5872 164.914 50.4006C164.914 51.5739 164.5 52.5072 163.674 53.2006C162.86 53.8806 161.72 54.2206 160.254 54.2206H153.714V40.1806H160.034C161.46 40.1806 162.574 40.5072 163.374 41.1606C164.187 41.8139 164.594 42.7006 164.594 43.8206C164.594 44.6472 164.374 45.3339 163.934 45.8806C163.507 46.4272 162.934 46.8072 162.214 47.0206ZM157.134 45.8606H159.374C159.934 45.8606 160.36 45.7406 160.654 45.5006C160.96 45.2472 161.114 44.8806 161.114 44.4006C161.114 43.9206 160.96 43.5539 160.654 43.3006C160.36 43.0472 159.934 42.9206 159.374 42.9206H157.134V45.8606ZM159.654 51.4606C160.227 51.4606 160.667 51.3339 160.974 51.0806C161.294 50.8139 161.454 50.4339 161.454 49.9406C161.454 49.4472 161.287 49.0606 160.954 48.7806C160.634 48.5006 160.187 48.3606 159.614 48.3606H157.134V51.4606H159.654Z" fill="white"/>
</svg>
