<svg width="63" height="63" viewBox="0 0 63 63" fill="none" xmlns="http://www.w3.org/2000/svg">
<path d="M0 0H22.4579C32.3686 0 40.4028 8.03418 40.4028 17.9448V40.4028H17.9448C8.03417 40.4028 0 32.3686 0 22.4579V0Z" fill="#131313"/>
<path d="M62.2206 0L62.2206 24.3839C62.2206 34.2945 54.1864 42.3287 44.2757 42.3287L19.8919 42.3287L19.8919 17.9448C19.8919 8.03417 27.9261 -1.49906e-06 37.8367 -1.06585e-06L62.2206 0Z" fill="#EE0000"/>
<path d="M40.4028 21.8177L40.4028 44.2757C40.4028 54.1864 32.3686 62.2205 22.458 62.2205L5.16397e-05 62.2205L5.26214e-05 39.7626C5.30546e-05 29.8519 8.03424 21.8177 17.9449 21.8177L40.4028 21.8177Z" fill="#EE0000"/>
<path d="M18.585 19.0905H44.2757C54.1864 19.0905 62.2206 27.1246 62.2206 37.0353V62.7261H36.5298C26.6191 62.7261 18.585 54.6919 18.585 44.7812V19.0905Z" fill="#131313"/>
</svg>
