<svg width="22" height="22" viewBox="0 0 22 22" fill="none" xmlns="http://www.w3.org/2000/svg">
<g clip-path="url(#clip0_1_113)">
<path fill-rule="evenodd" clip-rule="evenodd" d="M14.8186 20.0742C13.5586 20.0278 9.9877 19.5343 6.24795 15.7954C2.50907 12.0557 2.01645 8.48567 1.9692 7.2248C1.8992 5.3033 3.37095 3.43692 5.07107 2.70805C5.2758 2.61965 5.5 2.58599 5.72166 2.61038C5.94332 2.63477 6.15484 2.71637 6.33545 2.84717C7.73545 3.86742 8.70145 5.41092 9.53095 6.62455C9.71346 6.89119 9.79149 7.21565 9.75018 7.53612C9.70887 7.85659 9.55111 8.15066 9.30695 8.3623L7.59982 9.63017C7.51735 9.68973 7.45929 9.7772 7.43644 9.87633C7.41359 9.97546 7.42749 10.0795 7.47557 10.1692C7.86232 10.8718 8.55007 11.9183 9.33757 12.7058C10.1259 13.4933 11.2214 14.2266 11.9731 14.6571C12.0673 14.71 12.1782 14.7247 12.283 14.6984C12.3879 14.672 12.4786 14.6065 12.5366 14.5153L13.6478 12.8239C13.8521 12.5525 14.1535 12.3707 14.4889 12.3166C14.8242 12.2624 15.1675 12.3401 15.4468 12.5334C16.6779 13.3857 18.1147 14.3351 19.1664 15.6817C19.3079 15.8636 19.3978 16.0802 19.4269 16.3087C19.456 16.5373 19.4232 16.7695 19.3318 16.9811C18.5994 18.6899 16.7462 20.1451 14.8186 20.0742Z" fill="#EDEDED"/>
</g>
<defs>
<clipPath id="clip0_1_113">
<rect width="21" height="21" fill="white" transform="translate(0.335938 0.708008)"/>
</clipPath>
</defs>
</svg>
