<svg width="27" height="21" viewBox="0 0 27 21" fill="none" xmlns="http://www.w3.org/2000/svg">
<rect x="1" y="0.801758" width="25" height="19" stroke="black"/>
<path d="M9.31049 19.3577C17.1527 19.3577 21.4426 12.8598 21.4426 7.23472C21.4426 7.05289 21.4426 6.86846 21.4348 6.68662C22.27 6.08201 22.9908 5.33347 23.5635 4.47606C22.7834 4.82005 21.9566 5.04676 21.1101 5.14884C22.0018 4.61586 22.6696 3.77727 22.9895 2.78892C22.1517 3.28522 21.2348 3.63363 20.2789 3.81887C19.6362 3.13443 18.7858 2.68101 17.8593 2.52885C16.9329 2.37668 15.9821 2.53425 15.1542 2.97717C14.3264 3.42008 13.6677 4.12361 13.2802 4.97878C12.8927 5.83395 12.798 6.79304 13.0108 7.70748C11.3155 7.62248 9.65703 7.18207 8.14292 6.41484C6.62882 5.64761 5.29289 4.57067 4.22179 3.25389C3.67803 4.19303 3.51209 5.30392 3.75766 6.36097C4.00322 7.41802 4.64189 8.34199 5.54397 8.94524C4.86799 8.92227 4.20688 8.74076 3.61395 8.41533V8.47377C3.61511 9.45759 3.95593 10.4108 4.57879 11.1724C5.20165 11.9339 6.06835 12.457 7.03239 12.6533C6.66647 12.7541 6.28848 12.8044 5.90893 12.8027C5.64136 12.8035 5.37432 12.7787 5.11147 12.7286C5.38394 13.5755 5.91448 14.316 6.62879 14.8463C7.34309 15.3766 8.20539 15.6702 9.09489 15.686C7.58381 16.8729 5.71723 17.5166 3.79578 17.5134C3.45721 17.5149 3.11887 17.4953 2.78271 17.455C4.73288 18.6983 6.99771 19.3584 9.31049 19.3577Z" fill="#EDEDED"/>
</svg>
