<svg width="65" height="67" viewBox="0 0 65 67" fill="none" xmlns="http://www.w3.org/2000/svg">
<g clip-path="url(#clip0_43_165)">
<path d="M1.38701 32.9002C1.38549 38.4455 2.82361 43.8601 5.55818 48.6325L1.12549 64.9386L17.6883 60.5632C22.2694 63.0758 27.4021 64.3923 32.618 64.3927H32.6317C49.8504 64.3927 63.8667 50.2761 63.8741 32.925C63.8774 24.5172 60.6305 16.611 54.7312 10.6628C48.833 4.71515 40.9885 1.43792 32.6304 1.43408C15.4097 1.43408 1.39438 15.5499 1.38727 32.9002" fill="url(#paint0_linear_43_165)"/>
<path d="M0.27168 32.89C0.269902 38.6348 1.75957 44.243 4.59164 49.1864L0 66.077L17.1567 61.5448C21.8839 64.1415 27.2063 65.5106 32.6221 65.5127H32.6361C50.4725 65.5127 64.9924 50.8883 65 32.9161C65.003 24.2062 61.6393 16.0158 55.5293 9.85448C49.4185 3.69397 41.2935 0.298808 32.6361 0.295227C14.7966 0.295227 0.278789 14.9176 0.27168 32.89ZM10.4891 48.335L9.84852 47.3105C7.15559 42.9965 5.73422 38.0112 5.73625 32.8921C5.74184 17.9538 17.8085 5.80034 32.6463 5.80034C39.8318 5.80341 46.5847 8.62555 51.6638 13.7459C56.7427 18.8668 59.5375 25.674 59.5357 32.9141C59.5291 47.8523 47.4622 60.0073 32.6361 60.0073H32.6254C27.7979 60.0048 23.0633 58.6986 18.9343 56.2302L17.9517 55.6431L7.77055 58.3325L10.4891 48.335Z" fill="url(#paint1_linear_43_165)"/>
<path d="M24.5472 19.2633C23.9414 17.9067 23.3038 17.8794 22.7277 17.8556C22.256 17.8351 21.7167 17.8366 21.1779 17.8366C20.6386 17.8366 19.7624 18.041 19.0217 18.8558C18.2803 19.6713 16.1912 21.6421 16.1912 25.6505C16.1912 29.6588 19.089 33.5329 19.493 34.077C19.8974 34.6201 25.0873 43.109 33.3067 46.3747C40.1378 49.0887 41.528 48.5489 43.0105 48.4128C44.4933 48.2772 47.7951 46.4425 48.4687 44.54C49.1429 42.6378 49.1429 41.0072 48.9408 40.6665C48.7386 40.327 48.1993 40.1231 47.3907 39.7159C46.582 39.3086 42.606 37.3373 41.8649 37.0654C41.1235 36.7937 40.5844 36.6581 40.0451 37.4739C39.5058 38.2885 37.9573 40.1231 37.4853 40.6665C37.0138 41.2111 36.5417 41.2789 35.7333 40.8714C34.9241 40.4626 32.3198 39.6033 29.23 36.828C26.826 34.6684 25.2031 32.0016 24.7313 31.1858C24.2595 30.3713 24.6808 29.9297 25.0863 29.5238C25.4496 29.1587 25.8952 28.5724 26.2999 28.0968C26.7031 27.621 26.8377 27.2815 27.1074 26.7382C27.3773 26.1943 27.2422 25.7185 27.0403 25.311C26.8377 24.9035 25.2663 20.8742 24.5472 19.2633Z" fill="white"/>
</g>
<defs>
<linearGradient id="paint0_linear_43_165" x1="3138.56" y1="6351.89" x2="3138.56" y2="1.43408" gradientUnits="userSpaceOnUse">
<stop stop-color="#1FAF38"/>
<stop offset="1" stop-color="#60D669"/>
</linearGradient>
<linearGradient id="paint1_linear_43_165" x1="3250" y1="6578.47" x2="3250" y2="0.295227" gradientUnits="userSpaceOnUse">
<stop stop-color="#F9F9F9"/>
<stop offset="1" stop-color="white"/>
</linearGradient>
<clipPath id="clip0_43_165">
<rect width="65" height="66" fill="white" transform="translate(0 0.295227)"/>
</clipPath>
</defs>
</svg>
